<?xml version="1.0" standalone="no"?>
<!DOCTYPE svg PUBLIC "-//W3C//DTD SVG 20010904//EN"
 "http://www.w3.org/TR/2001/REC-SVG-20010904/DTD/svg10.dtd">
<svg version="1.0" xmlns="http://www.w3.org/2000/svg"
 width="500.000000pt" height="500.000000pt" viewBox="0 0 500.000000 500.000000"
 preserveAspectRatio="xMidYMid meet">
<metadata>
Created by potrace 1.14, written by Peter Selinger 2001-2017
</metadata>
<g transform="translate(0.000000,500.000000) scale(0.100000,-0.100000)"
fill="#000000" stroke="none">
<path d="M690 4697 c-19 -6 -40 -23 -47 -37 -17 -34 -19 -2496 -2 -2533 6 -14
22 -30 36 -36 16 -8 190 -11 566 -11 l542 0 265 -871 c223 -736 268 -874 288
-890 22 -17 43 -19 204 -19 193 0 224 7 245 52 10 22 128 393 276 870 34 109
64 198 67 198 3 0 22 -53 42 -118 63 -204 258 -824 280 -891 11 -36 32 -75 46
-88 24 -22 30 -23 207 -23 175 0 182 1 203 22 11 13 25 35 31 50 23 62 621
2045 621 2061 0 9 -9 26 -20 37 -19 19 -33 20 -226 20 -220 0 -254 -6 -282
-51 -12 -19 -49 -142 -263 -881 -45 -159 -85 -288 -89 -288 -3 0 -79 260 -170
578 -152 536 -166 579 -196 610 l-32 32 -146 0 c-160 0 -187 -7 -215 -54 -10
-17 -89 -286 -177 -598 -87 -313 -161 -568 -164 -568 -3 0 -68 215 -144 478
-76 262 -141 482 -143 488 -2 6 20 27 50 46 173 115 292 280 349 483 22 78 23
90 23 615 0 581 -1 599 -58 740 -53 131 -156 263 -277 353 -72 54 -232 137
-322 166 -190 63 -207 64 -793 67 -408 3 -548 1 -575 -9z m1141 -575 c121 -48
187 -112 232 -222 22 -54 22 -62 22 -510 0 -452 0 -455 -23 -512 -53 -130
-179 -218 -342 -238 -46 -5 -169 -10 -272 -10 l-188 0 0 761 0 760 258 -3
c238 -3 261 -5 313 -26z"/>
</g>
</svg>
